<?xml version="1.0" standalone="no"?><!DOCTYPE svg PUBLIC "-//W3C//DTD SVG 1.1//EN" "http://www.w3.org/Graphics/SVG/1.1/DTD/svg11.dtd"><svg t="1635931562360" class="icon" viewBox="0 0 1024 1024" version="1.1" xmlns="http://www.w3.org/2000/svg" p-id="7136" width="128" height="128" xmlns:xlink="http://www.w3.org/1999/xlink"><defs><style type="text/css"></style></defs><path d="M344 617.7h136v136c0 17.7 14.3 32 32 32s32-14.3 32-32v-136h136c17.7 0 32-14.3 32-32s-14.3-32-32-32H544v-136c0-17.7-14.3-32-32-32s-32 14.3-32 32v136H344c-17.7 0-32 14.3-32 32s14.3 32 32 32z" p-id="7137" fill="#131101"></path><path d="M926.9 80.4c-16.9-10.7-38.7-16.6-61.3-16.6h-592c-22.7 0-44.5 5.9-61.3 16.6-21.1 13.4-33.1 33.5-33.1 55.1v70.3h-31c-45.2 0-82 36.8-82 82V879c0 45.2 36.8 82 82 82h730c45.2 0 82-36.8 82-82V135.5c-0.2-21.7-12.3-41.7-33.3-55.1zM243 137.1c2.6-3 12.9-9.4 30.5-9.4h592c17.5 0 27.9 6.4 30.5 9.4v68.7H243v-68.7zM896 879c0 9.9-8.1 18-18 18H148c-9.9 0-18-8.1-18-18V287.8c0-9.9 8.1-18 18-18h748V879z" p-id="7138" fill="#131101"></path></svg>