<?xml version="1.0" standalone="no"?><!DOCTYPE svg PUBLIC "-//W3C//DTD SVG 1.1//EN" "http://www.w3.org/Graphics/SVG/1.1/DTD/svg11.dtd"><svg t="1647395821006" class="icon" viewBox="0 0 1024 1024" version="1.1" xmlns="http://www.w3.org/2000/svg" p-id="2857" width="32" height="32" xmlns:xlink="http://www.w3.org/1999/xlink"><defs><style type="text/css"></style></defs><path d="M725.312 608.768V433.152c0-74.112-326.784 24.192-384 263.424 0 0-75.584 88-85.312 0 0 0 109.696-482.944 469.312-482.944V81.92s42.688-61.824 128 43.968L1024 301.44l-298.688 307.328zM128 433.152a43.392 43.392 0 0 0-42.688 43.968v351.232c0 24.256 19.072 43.904 42.688 43.904h725.312a43.328 43.328 0 0 0 42.688-43.904v-43.904c0-24.256 19.072-43.968 42.688-43.968 23.616 0 42.688 19.712 42.688 43.968v87.808C981.312 920.768 943.104 960 896 960H85.312C38.208 960 0 920.768 0 872.256V433.152c0-48.512 38.208-87.808 85.312-87.808H128c23.552 0 42.688 19.648 42.688 43.904A43.328 43.328 0 0 1 128 433.152z" fill="#131101" p-id="2858"></path></svg>